<?xml version="1.0" encoding="UTF-8"?>
<!DOCTYPE svg PUBLIC "-//W3C//DTD SVG 1.1//EN" "http://www.w3.org/Graphics/SVG/1.1/DTD/svg11.dtd">
<!-- Creator: CorelDRAW X7 -->
<svg xmlns="http://www.w3.org/2000/svg" xml:space="preserve" width="642px" height="569px" version="1.1" style="shape-rendering:geometricPrecision; text-rendering:geometricPrecision; image-rendering:optimizeQuality; fill-rule:evenodd; clip-rule:evenodd"
viewBox="0 0 207 183"
 xmlns:xlink="http://www.w3.org/1999/xlink">
 <defs>
  <style type="text/css">
   <![CDATA[
    .fil2 {fill:black;fill-rule:nonzero}
    .fil0 {fill:#384347;fill-rule:nonzero}
    .fil1 {fill:#61C46E;fill-rule:nonzero}
   ]]>
  </style>
 </defs>
 <g id="Layer_x0020_1">
  <metadata id="CorelCorpID_0Corel-Layer"/>
  <polygon class="fil0" points="80,82 37,38 43,33 86,77 "/>
  <path class="fil1" d="M43 8c-6,0 -13,2 -17,7 -11,9 -12,26 -3,37 7,7 13,13 20,19 7,-6 14,-12 20,-19 9,-11 8,-28 -2,-37 -5,-5 -11,-7 -18,-7l0 0 0 0 0 0zm0 74l-2 -2c-8,-7 -16,-15 -24,-23 -12,-14 -11,-36 3,-48 7,-6 15,-9 23,-9 0,0 0,0 0,0 9,0 17,3 23,9 7,6 11,14 11,23 1,9 -2,18 -8,25 -7,8 -15,16 -23,23l-3 2z"/>
  <polygon class="fil0" points="6,82 0,77 43,33 49,38 "/>
  <path class="fil2" d="M38 126l10 0 -4 -9 -1 -4 0 0 -1 4 -4 9zm11 3l-12 0 -3 8 -4 0 12 -30 2 0 13 30 -5 0 -3 -8z"/>
  <path class="fil2" d="M65 131c0,1 0,2 0,3 1,0 1,0 2,0 1,0 1,0 2,0 0,0 1,0 1,0l1 3c-1,0 -1,0 -1,0 -1,0 -1,0 -2,1 0,0 -1,0 -1,0 0,0 -1,0 -1,0 -2,0 -3,-1 -4,-1 -1,-1 -1,-3 -1,-4l0 -26 4 0 0 24z"/>
  <polygon class="fil2" points="90,115 94,123 96,127 97,132 97,132 98,127 102,115 106,115 98,138 96,138 89,123 89,123 88,119 87,123 87,123 81,138 79,138 70,115 75,115 79,127 80,132 81,132 82,127 87,115 "/>
  <path class="fil2" d="M123 127c0,0 0,0 0,0 -1,0 -1,0 -1,0 -1,0 -1,0 -2,0 0,0 -1,0 -2,0 -1,0 -3,0 -4,0 -1,1 -1,2 -1,4 0,1 0,2 1,2 1,1 2,1 3,1 1,0 2,0 2,0 1,0 2,-1 2,-1 1,0 1,-1 2,-1 0,-1 0,-1 0,-2l0 -3zm-13 -11c3,-1 6,-2 10,-2 1,0 3,0 4,1 1,0 2,1 2,2 1,0 1,1 1,2 0,1 1,2 1,2 0,2 -1,4 -1,5 0,2 0,3 0,5 0,1 0,2 0,3 0,1 1,2 1,3l-3 0 -1 -3 -1 0c0,0 0,1 -1,1 0,1 -1,1 -1,1 -1,1 -2,1 -3,1 0,0 -1,1 -2,1 -1,0 -2,-1 -3,-1 -1,0 -2,-1 -3,-1 0,-1 -1,-1 -1,-2 0,-1 -1,-2 -1,-3 0,-1 1,-2 1,-3 1,-1 1,-2 2,-3 1,0 2,-1 3,-1 2,0 3,0 4,0 1,0 1,0 2,0 1,0 1,0 2,0 0,0 0,0 1,0 0,0 0,0 0,0 0,0 0,-1 1,-1 0,0 0,-1 0,-1 0,-1 -1,-2 -1,-2 0,-1 0,-1 -1,-2 0,0 0,0 -1,0 -1,0 -2,0 -3,0 0,0 -1,0 -1,0 -1,0 -2,0 -2,0 -1,0 -2,0 -2,1 -1,0 -1,0 -2,0l-1 -3z"/>
  <path class="fil2" d="M146 131c0,-1 0,-1 -1,-2 0,0 0,0 -1,-1 0,0 -1,0 -1,0 -1,0 -2,-1 -2,-1 -1,0 -2,0 -3,-1 -1,0 -1,0 -2,-1 -1,0 -1,-1 -2,-2 0,0 0,-1 0,-2 0,-3 0,-4 2,-5 1,-2 3,-2 5,-2 2,0 4,0 5,0 1,1 2,1 3,2l-1 3c-1,0 -2,-1 -3,-1 -1,-1 -2,-1 -3,-1 -2,0 -3,1 -3,1 -1,0 -1,1 -1,2 0,1 0,1 0,2 0,0 1,0 1,1 1,0 1,0 2,0 0,0 1,1 1,1 1,0 2,0 3,1 1,0 2,0 2,1 1,0 2,1 2,2 1,0 1,1 1,3 0,2 -1,3 -2,5 -2,1 -4,2 -7,2 -2,0 -3,0 -5,-1 -1,0 -2,-1 -3,-1l1 -4c1,1 2,1 3,2 1,0 3,0 4,0 1,0 3,0 3,0 1,-1 2,-2 2,-3z"/>
  <path class="fil2" d="M156 115l4 0 0 22 -4 0 0 -22zm-1 -6c0,0 0,-1 1,-2 0,0 1,0 2,0 1,0 1,0 2,0 0,1 1,2 1,2 0,1 -1,1 -1,2 -1,0 -1,1 -2,1 -1,0 -2,-1 -2,-1 -1,-1 -1,-1 -1,-2z"/>
  <path class="fil2" d="M165 115l4 0 0 -5 4 -1 0 6 6 0 0 3 -6 0 0 11c0,2 0,4 0,4 1,1 2,1 3,1 0,0 1,0 2,0 0,0 1,0 2,0l1 2c-1,1 -2,1 -3,1 -1,1 -3,1 -4,1 -2,0 -3,-1 -4,-2 -1,-1 -1,-3 -1,-5l0 -13 -4 0 0 -3z"/>
  <path class="fil2" d="M38 171l10 0 -4 -8 -1 -5 0 0 -1 5 -4 8zm11 4l-12 0 -3 8 -4 0 12 -31 2 0 13 31 -5 0 -3 -8z"/>
  <path class="fil2" d="M65 177c0,1 0,2 0,2 1,1 1,1 2,1 1,0 1,0 2,0 0,0 1,0 1,0l1 3c-1,0 -1,0 -1,0 -1,0 -1,0 -2,0 0,0 -1,0 -1,0 0,0 -1,0 -1,0 -2,0 -3,0 -4,-1 -1,-1 -1,-2 -1,-4l0 -25 4 0 0 24z"/>
  <path class="fil2" d="M91 183l0 -13c0,-2 0,-4 -1,-5 -1,-1 -2,-2 -4,-2 -2,0 -4,1 -5,1 -1,1 -2,3 -2,4l0 15 -4 0 0 -23 3 0 0 3 1 0c1,-1 2,-2 3,-2 1,-1 3,-1 5,-1 1,0 2,0 3,0 1,0 2,1 3,2 1,0 1,1 1,3 1,1 1,3 1,5l0 13 -4 0z"/>
  <path class="fil2" d="M118 183l0 -13c0,-2 0,-4 -1,-5 -1,-1 -2,-2 -4,-2 -2,0 -3,1 -5,1 -1,1 -2,3 -2,4l0 15 -4 0 0 -23 3 0 1 3 0 0c1,-1 2,-2 3,-2 1,-1 3,-1 5,-1 1,0 2,0 3,0 1,0 2,1 3,2 1,0 1,1 1,3 1,1 1,3 1,5l0 13 -4 0z"/>
  <path class="fil2" d="M142 173c0,0 0,0 -1,-1 0,0 0,0 0,0 -1,0 -1,0 -2,0 0,0 -1,0 -2,0 -2,0 -3,1 -4,1 -1,1 -2,2 -2,3 0,2 1,2 2,3 0,1 2,1 3,1 1,0 2,0 2,-1 1,0 2,0 2,0 1,-1 1,-1 1,-2 1,0 1,-1 1,-1l0 -3zm-13 -11c2,-2 6,-2 9,-2 2,0 3,0 4,1 2,0 2,1 3,1 0,1 1,2 1,2 0,1 0,2 0,3 0,2 0,3 0,5 0,1 0,3 0,5 0,1 0,2 0,3 0,1 0,2 1,3l-3 0 -1 -4 -1 0c0,1 0,1 -1,2 0,0 -1,1 -2,1 0,0 -1,1 -2,1 -1,0 -1,0 -3,0 -1,0 -2,0 -2,0 -1,-1 -2,-1 -3,-2 0,0 -1,-1 -1,-2 -1,0 -1,-1 -1,-2 0,-1 0,-3 1,-4 1,0 1,-1 2,-2 1,0 2,-1 3,-1 1,0 2,-1 4,-1 0,0 1,0 2,0 0,0 1,0 1,1 1,0 1,0 1,0 1,0 1,0 1,0 0,-1 0,-1 0,-1 0,-1 0,-1 0,-2 0,0 0,-1 0,-2 0,0 0,-1 -1,-1 0,0 -1,0 -1,-1 -1,0 -2,0 -3,0 0,0 -1,0 -1,0 -1,0 -2,1 -2,1 -1,0 -2,0 -2,0 -1,0 -2,1 -2,1l-1 -3z"/>
  <polygon class="fil2" points="152,179 163,166 166,164 152,164 152,160 169,160 169,164 158,177 155,179 169,179 169,183 152,183 "/>
  <path class="fil2" d="M175 160l4 0 0 23 -4 0 0 -23zm-1 -5c0,-1 1,-1 1,-2 1,0 1,-1 2,-1 1,0 2,1 2,1 1,1 1,1 1,2 0,1 0,1 -1,2 0,0 -1,0 -2,0 -1,0 -1,0 -2,0 0,-1 -1,-1 -1,-2z"/>
  <path class="fil2" d="M203 183l0 -13c0,-1 0,-2 0,-3 -1,-1 -1,-1 -1,-2 -1,-1 -1,-1 -2,-1 -1,-1 -1,-1 -3,-1 0,0 -1,0 -2,1 0,0 -1,0 -2,1 0,0 -1,1 -1,1 -1,1 -1,2 -1,2l0 15 -4 0 0 -30 4 0 0 10 0 0c1,-1 2,-2 3,-2 2,-1 3,-1 5,-1 1,0 2,0 3,0 1,0 2,1 3,2 1,0 1,1 1,3 1,1 1,3 1,5l0 13 -4 0z"/>
 </g>
</svg>
