<?xml version="1.0" encoding="UTF-8"?>
<!DOCTYPE svg PUBLIC "-//W3C//DTD SVG 1.1//EN" "http://www.w3.org/Graphics/SVG/1.1/DTD/svg11.dtd">
<!-- Creator: CorelDRAW X7 -->
<svg xmlns="http://www.w3.org/2000/svg" xml:space="preserve" width="641px" height="569px" version="1.1" style="shape-rendering:geometricPrecision; text-rendering:geometricPrecision; image-rendering:optimizeQuality; fill-rule:evenodd; clip-rule:evenodd"
viewBox="0 0 632 560"
 xmlns:xlink="http://www.w3.org/1999/xlink">
 <defs>
  <style type="text/css">
   <![CDATA[
    .fil0 {fill:black;fill-rule:nonzero}
   ]]>
  </style>
 </defs>
 <g id="Layer_x0020_1">
  <metadata id="CorelCorpID_0Corel-Layer"/>
  <path class="fil0" d="M236 99c-1,-28 -14,-54 -35,-72 -19,-18 -44,-27 -69,-27 0,0 0,0 0,0 -26,0 -51,9 -70,27 -43,37 -47,103 -10,146l17 -18c-26,-33 -23,-82 9,-110 15,-13 34,-20 54,-20l0 0 0 0 0 0c19,0 38,7 53,20 33,29 36,80 7,113 -19,21 -40,42 -60,59 -13,-11 -26,-23 -38,-35l-17 17c15,16 31,31 47,44l8 6 7 -6c25,-20 49,-44 71,-68 19,-21 28,-48 26,-76z"/>
  <path class="fil0" d="M212 181c-6,7 -11,12 -17,18l51 52 17 -17 -51 -53z"/>
  <path class="fil0" d="M0 234l18 17 114 -116 38 38c5,-5 11,-11 16,-18l-54 -55 -132 134z"/>
  <path class="fil0" d="M117 384l29 0 -11 -26 -3 -14 -1 0 -3 14 -11 26zm32 11l-36 0 -9 24 -13 0 37 -93 7 0 38 93 -14 0 -10 -24z"/>
  <path class="fil0" d="M198 401c0,3 0,6 2,7 1,2 3,3 5,3 2,0 3,-1 4,-1 2,0 3,0 5,-1l2 9c-1,1 -2,1 -3,1 -2,0 -3,1 -4,1 -2,0 -3,0 -4,1 -2,0 -3,0 -4,0 -5,0 -8,-1 -11,-4 -3,-2 -4,-6 -4,-12l0 -78 12 0 0 74z"/>
  <polygon class="fil0" points="275,350 286,376 292,389 295,403 296,403 299,389 312,350 324,350 299,420 292,420 273,376 273,376 269,363 265,376 265,376 247,420 241,420 215,350 228,350 242,389 245,403 246,403 250,389 266,350 "/>
  <path class="fil0" d="M377 388c-1,0 -2,0 -2,-1 -1,0 -2,0 -3,0 -2,0 -3,0 -5,0 -1,0 -3,0 -5,0 -6,0 -10,1 -13,2 -3,2 -5,6 -5,10 0,4 1,6 4,8 2,2 5,3 9,3 3,0 6,-1 8,-1 2,-1 4,-2 6,-3 1,-1 3,-2 4,-4 1,-1 1,-2 2,-4l0 -10zm-41 -34c8,-3 17,-5 29,-5 5,0 9,0 13,2 3,1 5,3 7,5 2,2 3,4 4,7 0,3 0,5 0,8 0,4 0,9 0,14 0,5 -1,10 -1,16 0,3 1,7 1,10 0,3 1,6 1,8l-8 0 -4 -10 -1 0c-1,1 -2,2 -4,4 -1,1 -3,2 -5,3 -2,1 -4,2 -6,3 -3,1 -6,1 -9,1 -3,0 -6,0 -9,-1 -2,-1 -5,-3 -7,-4 -2,-2 -3,-4 -4,-6 -2,-3 -2,-5 -2,-8 0,-4 1,-8 2,-11 2,-3 4,-5 7,-7 3,-2 6,-3 9,-4 4,-1 7,-1 11,-1 2,0 5,0 6,0 2,0 4,0 5,0 1,0 3,1 3,1 1,0 2,0 3,0 0,-1 0,-2 0,-3 0,-1 0,-3 0,-4 0,-2 0,-5 0,-6 -1,-2 -2,-3 -3,-4 -1,-1 -3,-2 -5,-2 -2,-1 -4,-1 -7,-1 -2,0 -4,0 -6,0 -2,1 -4,1 -6,1 -2,1 -4,2 -6,2 -2,1 -3,2 -5,2l-3 -10z"/>
  <path class="fil0" d="M445 400c0,-2 0,-4 -1,-5 -1,-1 -2,-2 -3,-3 -2,-1 -3,-1 -5,-2 -2,-1 -4,-1 -6,-2 -2,0 -5,-1 -8,-2 -2,-1 -5,-2 -7,-3 -2,-2 -3,-4 -5,-6 -1,-2 -2,-5 -2,-9 0,-7 2,-12 7,-15 4,-3 9,-5 17,-5 5,0 10,1 14,2 3,1 7,2 9,3l-2 10c-3,-1 -6,-2 -9,-3 -3,-1 -7,-2 -11,-2 -4,0 -7,1 -9,2 -2,2 -4,4 -4,8 0,2 1,3 2,4 0,1 1,2 3,2 1,1 3,2 4,2 2,1 4,1 6,2 3,1 5,2 8,2 2,1 5,3 7,4 2,2 4,4 5,6 2,2 2,5 2,9 0,6 -2,12 -6,16 -5,4 -11,6 -20,6 -5,0 -10,-1 -15,-2 -4,-1 -7,-2 -10,-4l3 -10c3,1 6,2 10,4 4,1 8,2 12,2 4,0 7,-1 10,-3 3,-1 4,-4 4,-8z"/>
  <path class="fil0" d="M476 350l12 0 0 69 -12 0 0 -69zm-3 -16c0,-2 1,-4 3,-6 1,-1 3,-2 6,-2 2,0 5,1 6,2 2,2 3,4 3,6 0,2 -1,3 -3,5 -1,1 -4,2 -6,2 -3,0 -5,-1 -6,-2 -2,-2 -3,-3 -3,-5z"/>
  <path class="fil0" d="M504 350l11 0 0 -14 12 -3 0 17 21 0 0 10 -21 0 0 35c0,6 1,10 3,12 1,2 3,4 7,4 2,0 4,-1 6,-1 1,-1 4,-1 6,-2l3 8c-3,2 -6,3 -9,4 -4,0 -7,1 -11,1 -6,0 -10,-2 -13,-5 -2,-4 -4,-9 -4,-16l0 -40 -11 0 0 -10z"/>
  <path class="fil0" d="M117 523l29 0 -11 -26 -3 -14 -1 0 -3 15 -11 25zm32 11l-36 0 -9 24 -13 0 37 -93 7 0 38 93 -14 0 -10 -24z"/>
  <path class="fil0" d="M198 540c0,4 0,6 2,8 1,1 3,2 5,2 2,0 3,0 4,0 2,0 3,-1 5,-1l2 9c-1,0 -2,0 -3,1 -2,0 -3,0 -4,1 -2,0 -3,0 -4,0 -2,0 -3,0 -4,0 -5,0 -8,-1 -11,-3 -3,-3 -4,-7 -4,-12l0 -78 12 0 0 73z"/>
  <path class="fil0" d="M278 558l0 -38c0,-7 -1,-12 -4,-16 -2,-4 -6,-6 -12,-6 -6,0 -10,2 -14,4 -3,3 -6,7 -7,11l0 45 -12 0 0 -68 8 0 3 9 1 0c2,-3 6,-6 10,-8 4,-2 9,-3 14,-3 4,0 8,0 11,1 3,1 6,2 8,5 2,2 3,5 4,9 1,4 2,9 2,15l0 40 -12 0z"/>
  <path class="fil0" d="M360 558l0 -38c0,-7 -1,-12 -3,-16 -3,-4 -7,-6 -13,-6 -5,0 -10,2 -13,4 -4,3 -6,7 -8,11l0 45 -12 0 0 -68 9 0 2 9 1 0c3,-3 6,-6 10,-8 4,-2 9,-3 15,-3 4,0 7,0 11,1 3,1 5,2 7,5 2,2 4,5 5,9 1,4 1,9 1,15l0 40 -12 0z"/>
  <path class="fil0" d="M434 527c0,0 -1,0 -2,0 -1,0 -2,0 -3,-1 -1,0 -2,0 -4,0 -2,0 -4,0 -6,0 -5,0 -10,1 -13,3 -3,2 -5,5 -5,10 0,3 2,6 4,8 3,1 6,2 10,2 3,0 5,0 7,-1 3,-1 4,-2 6,-3 2,-1 3,-2 4,-3 1,-2 2,-3 2,-4l0 -11zm-41 -33c8,-4 18,-6 29,-6 6,0 10,1 13,2 3,2 6,3 8,5 1,3 2,5 3,7 1,3 1,6 1,8 0,5 0,10 -1,15 0,5 0,10 0,15 0,4 0,7 0,10 1,3 1,6 2,9l-9 0 -3 -11 -2 0c-1,2 -2,3 -3,4 -2,2 -3,3 -5,4 -2,1 -4,2 -7,2 -2,1 -5,2 -8,2 -4,0 -7,-1 -9,-2 -3,-1 -5,-2 -7,-4 -2,-1 -4,-3 -5,-6 -1,-2 -2,-5 -2,-8 0,-4 1,-7 3,-10 2,-3 4,-5 7,-7 2,-2 5,-3 9,-4 3,-1 7,-2 10,-2 3,0 5,0 7,1 2,0 3,0 5,0 1,0 2,0 3,0 1,0 2,0 2,1 0,-2 1,-3 1,-4 0,-1 0,-2 0,-4 0,-2 0,-4 -1,-6 -1,-1 -1,-3 -3,-4 -1,-1 -2,-1 -4,-2 -2,0 -5,-1 -8,-1 -1,0 -3,1 -5,1 -2,0 -4,0 -6,1 -2,0 -4,1 -6,2 -2,0 -4,1 -6,2l-3 -10z"/>
  <polygon class="fil0" points="463,548 497,507 507,500 463,500 463,490 518,490 518,500 483,542 474,548 518,548 518,558 463,558 "/>
  <path class="fil0" d="M535 490l12 0 0 68 -12 0 0 -68zm-2 -17c0,-2 1,-4 2,-5 2,-2 4,-3 6,-3 3,0 5,1 7,3 1,1 2,3 2,5 0,2 -1,4 -2,5 -2,2 -4,3 -7,3 -2,0 -4,-1 -6,-3 -1,-1 -2,-3 -2,-5z"/>
  <path class="fil0" d="M620 558l0 -38c0,-3 -1,-7 -1,-9 -1,-3 -2,-5 -3,-7 -1,-2 -3,-3 -5,-4 -2,-1 -5,-2 -8,-2 -2,0 -4,1 -7,2 -2,0 -4,1 -6,3 -2,1 -3,3 -4,5 -2,2 -3,4 -3,6l0 44 -12 0 0 -91 12 0 0 31 1 0c3,-3 6,-6 10,-8 3,-1 8,-2 13,-2 4,0 8,0 11,1 3,1 6,2 8,5 2,2 3,5 4,9 1,4 2,9 2,15l0 40 -12 0z"/>
 </g>
</svg>
