<?xml version="1.0" encoding="UTF-8"?>
<!DOCTYPE svg PUBLIC "-//W3C//DTD SVG 1.1//EN" "http://www.w3.org/Graphics/SVG/1.1/DTD/svg11.dtd">
<!-- Creator: CorelDRAW X7 -->
<svg xmlns="http://www.w3.org/2000/svg" xml:space="preserve" width="1538px" height="255px" version="1.1" style="shape-rendering:geometricPrecision; text-rendering:geometricPrecision; image-rendering:optimizeQuality; fill-rule:evenodd; clip-rule:evenodd"
viewBox="0 0 1188 197"
 xmlns:xlink="http://www.w3.org/1999/xlink">
 <defs>
  <style type="text/css">
   <![CDATA[
    .fil0 {fill:black;fill-rule:nonzero}
   ]]>
  </style>
 </defs>
 <g id="Layer_x0020_1">
  <metadata id="CorelCorpID_0Corel-Layer"/>
  <path class="fil0" d="M293 108l25 0 -9 -23 -3 -13 0 0 -3 13 -10 23zm29 9l-32 0 -9 22 -11 0 33 -83 6 0 34 83 -13 0 -8 -22z"/>
  <path class="fil0" d="M364 123c0,3 1,5 2,6 1,2 3,2 5,2 1,0 2,0 3,0 2,0 3,0 5,-1l1 8c-1,0 -2,1 -3,1 -1,0 -2,0 -3,1 -1,0 -2,0 -4,0 -1,0 -2,0 -3,0 -4,0 -7,-1 -10,-3 -2,-2 -3,-6 -3,-10l0 -69 10 0 0 65z"/>
  <polygon class="fil0" points="432,78 442,101 447,113 450,124 451,124 454,112 465,78 475,78 453,140 447,140 430,101 430,101 427,90 424,101 424,101 407,140 402,140 379,78 390,78 403,112 406,124 407,124 410,112 424,78 "/>
  <path class="fil0" d="M522 111c-1,0 -1,0 -2,0 -1,0 -2,0 -3,-1 -1,0 -2,0 -3,0 -2,0 -4,0 -6,0 -4,0 -8,1 -11,3 -3,1 -4,4 -4,8 0,3 1,6 3,7 2,2 5,3 9,3 2,0 4,-1 6,-1 2,-1 4,-2 5,-3 2,-1 3,-2 4,-3 1,-1 1,-2 2,-4l0 -9zm-36 -29c7,-4 15,-5 25,-5 5,0 9,0 12,2 2,1 5,2 6,4 2,2 3,4 3,6 1,3 1,5 1,7 0,4 0,9 0,13 -1,4 -1,9 -1,14 0,3 0,6 0,8 1,3 1,6 2,8l-8 0 -3 -9 -1 0c-1,1 -2,2 -3,3 -1,1 -3,2 -5,3 -1,1 -3,2 -5,3 -3,0 -5,1 -8,1 -3,0 -5,-1 -8,-2 -2,0 -4,-2 -6,-3 -2,-1 -3,-3 -4,-5 -1,-3 -2,-5 -2,-8 0,-3 1,-6 3,-9 1,-2 3,-4 5,-6 3,-1 6,-3 9,-3 3,-1 6,-2 9,-2 2,0 4,0 6,1 1,0 3,0 4,0 1,0 2,0 3,0 1,0 1,0 2,0 0,-1 0,-2 0,-3 0,0 0,-1 0,-3 0,-2 0,-4 0,-5 -1,-2 -2,-3 -3,-4 -1,-1 -2,-1 -4,-2 -2,0 -4,0 -6,0 -2,0 -3,0 -5,0 -2,0 -4,1 -6,1 -1,1 -3,1 -5,2 -2,0 -3,1 -5,2l-2 -9z"/>
  <path class="fil0" d="M582 122c0,-2 0,-3 -1,-4 -1,-1 -2,-2 -3,-3 -1,-1 -3,-1 -4,-2 -2,0 -4,-1 -5,-1 -3,-1 -5,-2 -7,-2 -2,-1 -4,-2 -6,-3 -2,-2 -4,-3 -5,-5 -1,-2 -1,-5 -1,-8 0,-6 1,-11 5,-13 4,-3 9,-5 15,-5 5,0 9,1 12,2 4,0 7,1 9,3l-3 9c-2,-1 -4,-2 -7,-3 -3,-1 -6,-2 -10,-2 -3,0 -6,1 -8,2 -2,1 -3,3 -3,7 0,1 1,2 1,3 1,1 2,2 3,2 1,1 3,2 4,2 2,1 3,1 5,2 2,0 5,1 7,2 2,1 4,2 6,3 2,1 4,3 5,5 1,2 2,5 2,8 0,6 -2,10 -6,14 -4,4 -10,5 -17,5 -5,0 -10,0 -13,-1 -4,-1 -7,-2 -10,-4l3 -9c3,1 5,2 9,4 3,1 7,1 10,1 4,0 7,0 9,-2 3,-1 4,-4 4,-7z"/>
  <path class="fil0" d="M609 78l10 0 0 61 -10 0 0 -61zm-2 -15c0,-1 0,-3 2,-4 1,-2 3,-3 5,-3 2,0 4,1 6,3 1,1 2,3 2,4 0,2 -1,4 -2,5 -2,1 -4,2 -6,2 -2,0 -4,-1 -5,-2 -2,-1 -2,-3 -2,-5z"/>
  <path class="fil0" d="M633 78l10 0 0 -12 11 -3 0 15 18 0 0 9 -18 0 0 31c0,5 1,8 2,10 1,2 3,3 6,3 2,0 4,0 6,0 1,-1 3,-1 5,-2l2 7c-2,2 -5,2 -7,3 -3,1 -6,1 -10,1 -5,0 -9,-1 -11,-4 -2,-3 -4,-8 -4,-14l0 -35 -10 0 0 -9z"/>
  <path class="fil0" d="M735 108l25 0 -9 -23 -3 -13 0 0 -3 13 -10 23zm29 9l-32 0 -8 22 -12 0 33 -83 6 0 34 83 -12 0 -9 -22z"/>
  <path class="fil0" d="M806 123c0,3 1,5 2,6 1,2 3,2 5,2 1,0 2,0 4,0 1,0 2,0 4,-1l1 8c-1,0 -2,1 -3,1 -1,0 -2,0 -3,1 -1,0 -2,0 -4,0 -1,0 -2,0 -3,0 -4,0 -7,-1 -10,-3 -2,-2 -3,-6 -3,-10l0 -69 10 0 0 65z"/>
  <path class="fil0" d="M877 139l0 -34c0,-6 -1,-11 -3,-15 -2,-3 -6,-4 -12,-4 -4,0 -8,1 -11,3 -3,3 -6,6 -7,10l0 40 -10 0 0 -61 7 0 2 8 1 0c2,-3 5,-5 9,-7 3,-2 8,-3 13,-3 3,0 6,1 9,1 3,1 5,3 7,5 2,2 3,4 4,8 1,3 1,8 1,13l0 36 -10 0z"/>
  <path class="fil0" d="M949 139l0 -34c0,-6 -1,-11 -3,-15 -2,-3 -6,-4 -11,-4 -5,0 -9,1 -12,3 -3,3 -5,6 -6,10l0 40 -11 0 0 -61 8 0 2 8 1 0c2,-3 5,-5 8,-7 4,-2 8,-3 13,-3 4,0 7,1 10,1 2,1 5,3 7,5 1,2 3,4 4,8 1,3 1,8 1,13l0 36 -11 0z"/>
  <path class="fil0" d="M1014 111c0,0 -1,0 -2,0 0,0 -1,0 -2,-1 -1,0 -2,0 -4,0 -1,0 -3,0 -5,0 -5,0 -9,1 -11,3 -3,1 -5,4 -5,8 0,3 2,6 4,7 2,2 5,3 8,3 3,0 5,-1 7,-1 2,-1 4,-2 5,-3 1,-1 3,-2 3,-3 1,-1 2,-2 2,-4l0 -9zm-36 -29c7,-4 16,-5 26,-5 5,0 8,0 11,2 3,1 5,2 7,4 1,2 2,4 3,6 0,3 1,5 1,7 0,4 -1,9 -1,13 0,4 0,9 0,14 0,3 0,6 0,8 0,3 1,6 1,8l-7 0 -3 -9 -1 0c-1,1 -2,2 -4,3 -1,1 -2,2 -4,3 -2,1 -4,2 -6,3 -2,0 -5,1 -7,1 -3,0 -6,-1 -8,-2 -3,0 -5,-2 -7,-3 -1,-1 -3,-3 -4,-5 -1,-3 -1,-5 -1,-8 0,-3 1,-6 2,-9 2,-2 4,-4 6,-6 2,-1 5,-3 8,-3 3,-1 6,-2 9,-2 3,0 5,0 6,1 2,0 3,0 4,0 2,0 3,0 3,0 1,0 2,0 2,0 1,-1 1,-2 1,-3 0,0 0,-1 0,-3 0,-2 0,-4 -1,-5 0,-2 -1,-3 -2,-4 -1,-1 -3,-1 -4,-2 -2,0 -4,0 -7,0 -1,0 -3,0 -5,0 -1,0 -3,1 -5,1 -2,1 -4,1 -5,2 -2,0 -4,1 -5,2l-3 -9z"/>
  <polygon class="fil0" points="1040,130 1070,93 1078,87 1040,87 1040,78 1088,78 1088,87 1057,124 1049,130 1088,130 1088,139 1040,139 "/>
  <path class="fil0" d="M1103 78l11 0 0 61 -11 0 0 -61zm-2 -15c0,-1 1,-3 2,-4 1,-2 3,-3 6,-3 2,0 4,1 5,3 2,1 2,3 2,4 0,2 0,4 -2,5 -1,1 -3,2 -5,2 -3,0 -5,-1 -6,-2 -1,-1 -2,-3 -2,-5z"/>
  <path class="fil0" d="M1177 139l0 -34c0,-3 0,-6 0,-9 -1,-2 -2,-4 -3,-6 -1,-1 -2,-2 -4,-3 -2,-1 -4,-1 -7,-1 -2,0 -4,0 -6,1 -2,0 -4,1 -6,3 -1,1 -3,2 -4,4 -1,2 -2,4 -2,6l0 39 -11 0 0 -81 11 0 0 27 1 0c2,-2 5,-5 8,-6 4,-2 8,-3 12,-3 4,0 7,1 10,1 3,1 5,3 7,5 2,2 3,4 4,8 1,3 1,8 1,13l0 36 -11 0z"/>
  <path class="fil0" d="M185 77c-1,-21 -11,-42 -27,-56 -15,-14 -35,-21 -55,-21 0,0 0,0 0,0 -20,0 -39,7 -54,21 -34,30 -37,81 -8,115l13 -14c-21,-26 -18,-64 7,-87 12,-10 27,-16 42,-16l0 0 0 0 0 0c16,0 31,6 42,16 26,23 28,63 5,89 -14,17 -30,33 -47,46 -10,-8 -20,-18 -29,-27l-14 13c12,13 25,24 37,34l6 6 6 -6c19,-15 39,-34 56,-53 14,-16 22,-38 20,-60z"/>
  <path class="fil0" d="M166 142c-4,5 -9,10 -13,14l40 41 13 -13 -40 -42z"/>
  <path class="fil0" d="M0 184l14 13 89 -91 30 30c4,-5 9,-9 13,-14l-43 -44 -103 106z"/>
 </g>
</svg>
