<?xml version="1.0" encoding="UTF-8"?>
<!DOCTYPE svg PUBLIC "-//W3C//DTD SVG 1.1//EN" "http://www.w3.org/Graphics/SVG/1.1/DTD/svg11.dtd">
<!-- Creator: CorelDRAW X7 -->
<svg xmlns="http://www.w3.org/2000/svg" xml:space="preserve" width="130.24mm" height="21.614mm" version="1.1" style="shape-rendering:geometricPrecision; text-rendering:geometricPrecision; image-rendering:optimizeQuality; fill-rule:evenodd; clip-rule:evenodd"
viewBox="0 0 8789 1459"
 xmlns:xlink="http://www.w3.org/1999/xlink">
 <defs>
  <style type="text/css">
   <![CDATA[
    .fil2 {fill:black;fill-rule:nonzero}
    .fil0 {fill:#384347;fill-rule:nonzero}
    .fil1 {fill:#61C46E;fill-rule:nonzero}
   ]]>
  </style>
 </defs>
 <g id="Layer_x0020_1">
  <metadata id="CorelCorpID_0Corel-Layer"/>
  <polygon class="fil0" points="1425,1458 665,680 764,578 1527,1358 "/>
  <path class="fil1" d="M764 143c-114,0 -224,42 -310,118 -192,170 -209,465 -38,657 108,122 228,240 348,343 120,-103 240,-221 348,-343 171,-192 154,-487 -38,-657 -86,-76 -196,-118 -310,-118l0 0 0 0 0 0zm0 1304l-45 -38c-141,-116 -283,-253 -410,-396 -223,-251 -200,-636 51,-859 111,-99 255,-154 404,-154 0,0 0,0 0,0 149,0 293,55 404,154 122,108 194,257 204,419 9,162 -45,319 -153,440 -127,143 -269,280 -410,396l-45 38z"/>
  <polygon class="fil0" points="102,1459 0,1359 764,578 863,680 "/>
  <path class="fil2" d="M2171 796l185 0 -68 -170 -23 -92 -2 0 -23 94 -69 168zm210 71l-235 0 -63 158 -86 0 247 -608 45 0 247 608 -91 0 -64 -158z"/>
  <path class="fil2" d="M2695 906c0,24 5,40 14,50 8,10 20,14 35,14 9,0 18,0 27,-1 8,-1 19,-4 31,-7l10 58c-6,2 -13,5 -21,7 -8,2 -16,3 -25,5 -8,2 -17,3 -25,4 -9,1 -17,1 -23,1 -31,0 -56,-8 -74,-23 -18,-16 -28,-42 -28,-79l0 -510 79 0 0 481z"/>
  <polygon class="fil2" points="3197,575 3269,746 3307,832 3331,919 3337,919 3357,830 3441,575 3516,575 3352,1035 3310,1035 3184,744 3184,745 3161,662 3136,746 3136,745 3015,1035 2974,1035 2803,575 2889,575 2985,830 3001,920 3009,920 3033,828 3136,575 "/>
  <path class="fil2" d="M3861 821c-4,0 -9,-1 -14,-2 -5,-1 -12,-2 -19,-3 -8,0 -17,-1 -28,-2 -10,0 -23,0 -38,0 -36,0 -63,6 -84,18 -21,13 -31,34 -31,65 0,23 8,40 24,51 16,12 37,17 63,17 18,0 35,-2 49,-7 15,-5 27,-11 38,-18 10,-7 19,-15 25,-24 7,-9 12,-18 15,-26l0 -69zm-268 -217c51,-25 115,-37 191,-37 34,0 62,4 83,13 20,9 37,20 48,34 11,14 19,29 23,46 3,17 5,33 5,50 0,31 -1,63 -3,95 -2,31 -4,66 -4,103 0,22 1,43 3,63 2,20 6,39 10,56l-57 0 -22 -69 -8 0c-6,9 -14,18 -23,27 -9,8 -20,16 -33,23 -12,7 -27,13 -43,17 -16,5 -35,7 -56,7 -21,0 -41,-3 -58,-9 -18,-6 -33,-14 -46,-25 -13,-11 -23,-24 -31,-40 -7,-16 -11,-33 -11,-53 0,-25 6,-48 17,-67 11,-18 25,-34 43,-46 18,-12 38,-21 61,-26 22,-6 45,-9 67,-9 18,0 33,0 45,1 12,0 22,1 31,2 8,1 15,2 21,3 5,0 11,1 15,2 1,-9 2,-16 3,-23 0,-6 1,-14 1,-24 0,-16 -2,-29 -6,-40 -3,-11 -9,-19 -16,-26 -8,-7 -18,-11 -32,-14 -13,-3 -29,-4 -48,-4 -10,0 -22,0 -36,2 -13,2 -26,4 -39,7 -13,4 -26,7 -39,12 -13,5 -24,9 -35,15l-21 -66z"/>
  <path class="fil2" d="M4307 899c0,-11 -3,-21 -9,-28 -5,-8 -12,-15 -21,-20 -10,-6 -20,-10 -32,-14 -12,-4 -25,-8 -38,-12 -16,-5 -33,-10 -50,-15 -17,-6 -32,-13 -45,-23 -14,-9 -25,-21 -33,-36 -9,-15 -13,-34 -13,-57 0,-44 13,-77 40,-99 26,-22 64,-33 112,-33 36,0 66,4 90,11 25,7 46,14 65,22l-19 67c-16,-8 -34,-15 -56,-22 -21,-7 -44,-11 -70,-11 -28,0 -49,5 -63,14 -13,9 -20,26 -20,50 0,9 2,18 7,24 6,7 12,12 21,17 9,5 19,9 30,13 11,4 23,7 36,11 17,4 34,10 51,16 17,6 33,14 47,24 15,10 26,22 35,38 9,15 13,35 13,58 0,42 -14,77 -42,103 -29,27 -72,40 -129,40 -36,0 -68,-3 -95,-11 -28,-7 -50,-16 -69,-26l23 -68c16,8 36,17 61,26 25,8 51,12 77,12 28,0 51,-5 69,-15 18,-10 27,-28 27,-56z"/>
  <path class="fil2" d="M4505 575l78 0 0 450 -78 0 0 -450zm-17 -107c0,-13 5,-25 16,-35 10,-11 23,-16 40,-16 17,0 30,5 41,16 11,10 16,22 16,35 0,13 -5,25 -16,35 -11,10 -24,15 -41,15 -17,0 -30,-5 -40,-15 -11,-10 -16,-22 -16,-35z"/>
  <path class="fil2" d="M4685 575l76 0 0 -90 79 -21 0 111 135 0 0 67 -135 0 0 230c0,36 4,61 13,76 10,15 25,22 48,22 14,0 27,-1 39,-4 11,-3 25,-8 39,-13l18 56c-18,8 -37,15 -58,20 -21,6 -44,8 -68,8 -40,0 -68,-11 -85,-32 -17,-22 -25,-57 -25,-107l0 -256 -76 0 0 -67z"/>
  <path class="fil2" d="M5441 796l186 0 -69 -170 -23 -92 -2 0 -23 94 -69 168zm210 71l-235 0 -63 158 -86 0 247 -608 45 0 248 608 -91 0 -65 -158z"/>
  <path class="fil2" d="M5966 906c0,24 4,40 13,50 9,10 21,14 35,14 10,0 18,0 27,-1 9,-1 19,-4 31,-7l10 58c-6,2 -13,5 -20,7 -9,2 -17,3 -25,5 -9,2 -17,3 -26,4 -9,1 -16,1 -23,1 -31,0 -56,-8 -74,-23 -18,-16 -27,-42 -27,-79l0 -510 79 0 0 481z"/>
  <path class="fil2" d="M6486 1025l0 -248c0,-48 -7,-84 -23,-108 -15,-24 -42,-36 -82,-36 -35,0 -64,9 -87,27 -23,18 -39,41 -48,69l0 296 -79 0 0 -450 55 0 15 60 8 0c16,-20 38,-38 64,-52 27,-14 59,-21 96,-21 26,0 49,3 69,9 20,6 37,17 51,32 13,15 23,36 30,61 7,25 10,58 10,96l0 265 -79 0z"/>
  <path class="fil2" d="M7024 1025l0 -248c0,-48 -8,-84 -23,-108 -16,-24 -43,-36 -83,-36 -34,0 -63,9 -86,27 -24,18 -40,41 -49,69l0 296 -79 0 0 -450 55 0 16 60 7 0c17,-20 38,-38 65,-52 27,-14 58,-21 95,-21 27,0 50,3 70,9 20,6 37,17 50,32 13,15 24,36 30,61 7,25 11,58 11,96l0 265 -79 0z"/>
  <path class="fil2" d="M7505 821c-5,0 -9,-1 -14,-2 -6,-1 -12,-2 -20,-3 -7,0 -16,-1 -27,-2 -10,0 -23,0 -39,0 -35,0 -63,6 -83,18 -21,13 -31,34 -31,65 0,23 8,40 24,51 16,12 37,17 62,17 19,0 36,-2 50,-7 15,-5 27,-11 38,-18 10,-7 19,-15 25,-24 7,-9 12,-18 15,-26l0 -69zm-268 -217c51,-25 115,-37 191,-37 34,0 62,4 83,13 20,9 37,20 48,34 11,14 19,29 23,46 3,17 5,33 5,50 0,31 -1,63 -3,95 -2,31 -4,66 -4,103 0,22 1,43 3,63 2,20 6,39 10,56l-57 0 -22 -69 -8 0c-6,9 -14,18 -23,27 -9,8 -20,16 -33,23 -12,7 -27,13 -43,17 -16,5 -35,7 -56,7 -21,0 -41,-3 -59,-9 -17,-6 -33,-14 -45,-25 -13,-11 -23,-24 -31,-40 -7,-16 -11,-33 -11,-53 0,-25 6,-48 17,-67 11,-18 25,-34 43,-46 18,-12 38,-21 60,-26 23,-6 45,-9 68,-9 17,0 32,0 45,1 12,0 22,1 31,2 8,1 15,2 21,3 5,0 10,1 15,2 1,-9 2,-16 3,-23 0,-6 0,-14 0,-24 0,-16 -1,-29 -5,-40 -3,-11 -9,-19 -16,-26 -8,-7 -19,-11 -32,-14 -13,-3 -29,-4 -48,-4 -11,0 -23,0 -36,2 -13,2 -26,4 -39,7 -13,4 -26,7 -39,12 -13,5 -25,9 -35,15l-21 -66z"/>
  <polygon class="fil2" points="7693,958 7915,687 7975,642 7693,642 7693,575 8047,575 8047,643 7823,916 7763,958 8047,958 8047,1025 7693,1025 "/>
  <path class="fil2" d="M8162 575l79 0 0 450 -79 0 0 -450zm-16 -107c0,-13 5,-25 15,-35 10,-11 24,-16 40,-16 17,0 31,5 42,16 10,10 16,22 16,35 0,13 -6,25 -16,35 -11,10 -25,15 -42,15 -16,0 -30,-5 -40,-15 -10,-10 -15,-22 -15,-35z"/>
  <path class="fil2" d="M8710 1025l0 -248c0,-25 -1,-46 -4,-64 -4,-18 -9,-33 -18,-45 -8,-12 -19,-21 -33,-27 -14,-5 -32,-8 -53,-8 -15,0 -29,2 -44,7 -14,6 -27,13 -39,22 -12,9 -22,20 -31,33 -8,13 -15,27 -19,43l0 287 -78 0 0 -600 78 0 0 206 10 0c17,-21 38,-37 61,-50 24,-12 54,-19 90,-19 27,0 51,3 71,9 20,6 36,17 49,32 14,15 23,36 30,61 6,25 9,57 9,96l0 265 -79 0z"/>
 </g>
</svg>
