<?xml version="1.0" encoding="UTF-8"?>
<!DOCTYPE svg PUBLIC "-//W3C//DTD SVG 1.1//EN" "http://www.w3.org/Graphics/SVG/1.1/DTD/svg11.dtd">
<!-- Creator: CorelDRAW X7 -->
<svg xmlns="http://www.w3.org/2000/svg" xml:space="preserve" width="22.6305mm" height="21.614mm" version="1.1" style="shape-rendering:geometricPrecision; text-rendering:geometricPrecision; image-rendering:optimizeQuality; fill-rule:evenodd; clip-rule:evenodd"
viewBox="0 0 265 253"
 xmlns:xlink="http://www.w3.org/1999/xlink">
 <defs>
  <style type="text/css">
   <![CDATA[
    .fil0 {fill:#384347;fill-rule:nonzero}
    .fil1 {fill:#61C46E;fill-rule:nonzero}
   ]]>
  </style>
 </defs>
 <g id="Layer_x0020_1">
  <metadata id="CorelCorpID_0Corel-Layer"/>
  <polygon class="fil0" points="248,253 115,118 133,100 265,236 "/>
  <path class="fil1" d="M133 25c-20,0 -39,7 -54,20 -33,30 -36,81 -7,115 19,21 40,41 61,59 21,-18 41,-38 60,-59 30,-34 27,-85 -6,-115 -15,-13 -34,-20 -54,-20l0 0 0 0 0 0zm0 226l-8 -6c-25,-20 -49,-44 -71,-69 -39,-44 -35,-111 8,-149 20,-18 45,-27 71,-27 0,0 0,0 0,0 26,0 51,9 70,27 21,18 34,44 35,73 2,28 -7,55 -26,76 -22,25 -47,49 -71,69l-8 6z"/>
  <polygon class="fil0" points="18,253 0,236 133,100 150,118 "/>
 </g>
</svg>
